<?xml version="1.0" encoding="utf-8"?>
<!-- Generator: Adobe Illustrator 16.0.0, SVG Export Plug-In . SVG Version: 6.00 Build 0)  -->
<!DOCTYPE svg PUBLIC "-//W3C//DTD SVG 1.1//EN" "http://www.w3.org/Graphics/SVG/1.1/DTD/svg11.dtd">
<svg version="1.1" xmlns="http://www.w3.org/2000/svg" xmlns:xlink="http://www.w3.org/1999/xlink" x="0px" y="0px"
	 width="566.929px" height="566.929px" viewBox="0 0 566.929 566.929" enable-background="new 0 0 566.929 566.929"
	 xml:space="preserve">
<g id="Capa_1">
	<g>
		<g>
			<path d="M633.535,860.644c1.612,0,1.612-2.5,0-2.5S631.923,860.644,633.535,860.644L633.535,860.644z"/>
		</g>
	</g>
</g>
<g id="Capa_2">
	<g id="XMLID_2_">
		<g>
			<polygon points="549.864,287.9 549.864,391.73 547.885,392.55 546.145,393.271 543.295,394.041 540.005,394.49 536.175,394.041 
				533.435,393.271 531.914,392.561 530.154,391.73 530.154,287.9 532.135,287.081 533.874,286.36 536.725,285.59 540.005,285.14 
				543.845,285.59 546.574,286.36 548.095,287.07 			"/>
			<polygon points="530.154,391.73 530.154,421.45 528.175,422.73 526.435,423.851 523.584,425.05 520.305,425.75 516.465,425.05 
				513.734,423.851 512.215,422.74 510.444,421.45 510.444,259.831 512.425,258.55 514.175,257.43 517.015,256.23 520.305,255.53 
				524.135,256.23 526.874,257.43 528.395,258.541 530.154,259.831 530.154,287.9 			"/>
			<polygon points="510.444,421.45 510.444,446.57 508.244,447.64 506.345,448.57 502.925,449.57 498.135,450.15 494.024,449.57 
				490.465,448.57 488.284,447.63 485.814,446.57 485.814,407.26 485.814,346.67 485.814,334.44 485.814,272.37 485.814,233.061 
				488.284,232 490.465,231.061 494.024,230.061 498.135,229.48 502.925,230.061 506.345,231.061 508.244,231.99 510.444,233.061 
				510.444,259.831 			"/>
			<polygon points="485.814,334.44 485.814,346.67 81.114,346.67 81.114,335.44 			"/>
			<polygon fill="#010002" points="81.114,335.44 81.114,346.67 81.114,406.271 81.114,445.581 78.645,446.64 76.455,447.581 
				72.895,448.581 68.794,449.16 64.004,448.581 60.584,447.581 58.685,446.65 56.475,445.581 56.475,420.47 56.475,258.84 
				56.475,232.07 58.685,231 60.584,230.07 64.004,229.07 68.794,228.49 72.895,229.07 76.455,230.07 78.645,231.01 81.114,232.07 
				81.114,271.38 			"/>
			<polygon fill="#010002" points="56.475,258.84 56.475,420.47 54.714,421.75 53.194,422.86 50.455,424.061 46.625,424.76 
				43.344,424.061 40.495,422.86 38.745,421.74 36.774,420.47 36.774,390.74 36.774,286.91 36.774,258.84 38.535,257.55 
				40.055,256.44 42.794,255.24 46.625,254.55 49.904,255.24 52.754,256.44 54.504,257.57 			"/>
			<polygon points="36.774,286.91 36.774,390.74 35.004,391.57 33.484,392.28 30.745,393.05 26.915,393.5 23.634,393.05 
				20.785,392.28 19.044,391.561 17.064,390.74 17.064,286.91 18.824,286.081 20.344,285.37 23.084,284.601 26.915,284.15 
				30.205,284.601 33.044,285.37 34.794,286.09 			"/>
		</g>
		<g>
			<polyline fill="none" stroke="#FFFFFF" stroke-width="3" stroke-miterlimit="10" points="510.444,259.831 512.425,258.55 
				514.175,257.43 517.015,256.23 520.305,255.53 524.135,256.23 526.874,257.43 528.395,258.541 530.154,259.831 			"/>
			<polyline fill="none" stroke="#FFFFFF" stroke-width="3" stroke-miterlimit="10" points="530.154,421.45 528.175,422.73 
				526.435,423.851 523.584,425.05 520.305,425.75 516.465,425.05 513.734,423.851 512.215,422.74 510.444,421.45 			"/>
			<polyline fill="none" stroke="#FFFFFF" stroke-width="3" stroke-miterlimit="10" points="485.814,272.37 485.814,334.44 
				485.814,346.67 485.814,407.26 			"/>
			
				<line fill="none" stroke="#FFFFFF" stroke-width="3" stroke-miterlimit="10" x1="485.814" y1="272.37" x2="485.814" y2="233.061"/>
			
				<line fill="none" stroke="#FFFFFF" stroke-width="3" stroke-miterlimit="10" x1="485.814" y1="446.57" x2="485.814" y2="407.26"/>
			<polyline fill="none" stroke="#FFFFFF" stroke-width="3" stroke-miterlimit="10" points="485.814,233.061 488.284,232 
				490.465,231.061 494.024,230.061 498.135,229.48 502.925,230.061 506.345,231.061 508.244,231.99 510.444,233.061 			"/>
			<polyline fill="none" stroke="#FFFFFF" stroke-width="3" stroke-miterlimit="10" points="485.814,446.57 488.284,447.63 
				490.465,448.57 494.024,449.57 498.135,450.15 502.925,449.57 506.345,448.57 508.244,447.64 510.444,446.57 			"/>
			<polyline fill="none" stroke="#FFFFFF" stroke-width="3" stroke-miterlimit="10" points="530.154,259.831 530.154,287.9 
				530.154,391.73 530.154,421.45 			"/>
			<polyline fill="none" stroke="#FFFFFF" stroke-width="3" stroke-miterlimit="10" points="530.154,287.9 532.135,287.081 
				533.874,286.36 536.725,285.59 540.005,285.14 543.845,285.59 546.574,286.36 548.095,287.07 549.864,287.9 			"/>
			<polyline fill="none" stroke="#FFFFFF" stroke-width="3" stroke-miterlimit="10" points="549.864,391.73 547.885,392.55 
				546.145,393.271 543.295,394.041 540.005,394.49 536.175,394.041 533.435,393.271 531.914,392.561 530.154,391.73 			"/>
			<line fill="none" stroke="#FFFFFF" stroke-width="3" stroke-miterlimit="10" x1="549.864" y1="287.9" x2="549.864" y2="391.73"/>
			<polyline fill="none" stroke="#FFFFFF" stroke-width="3" stroke-miterlimit="10" points="510.444,233.061 510.444,259.831 
				510.444,421.45 510.444,446.57 			"/>
			<polyline fill="none" stroke="#FFFFFF" stroke-width="3" stroke-miterlimit="10" points="56.475,258.84 54.504,257.57 
				52.754,256.44 49.904,255.24 46.625,254.55 42.794,255.24 40.055,256.44 38.535,257.55 36.774,258.84 			"/>
			<polyline fill="none" stroke="#FFFFFF" stroke-width="3" stroke-miterlimit="10" points="36.774,420.47 38.745,421.74 
				40.495,422.86 43.344,424.061 46.625,424.76 50.455,424.061 53.194,422.86 54.714,421.75 56.475,420.47 			"/>
			<polyline fill="none" stroke="#FFFFFF" stroke-width="3" stroke-miterlimit="10" points="81.114,271.38 81.114,335.44 
				81.114,346.67 81.114,406.271 			"/>
			<line fill="none" stroke="#FFFFFF" stroke-width="3" stroke-miterlimit="10" x1="81.114" y1="271.38" x2="81.114" y2="232.07"/>
			
				<line fill="none" stroke="#FFFFFF" stroke-width="3" stroke-miterlimit="10" x1="81.114" y1="445.581" x2="81.114" y2="406.271"/>
			<polyline fill="none" stroke="#FFFFFF" stroke-width="3" stroke-miterlimit="10" points="81.114,232.07 78.645,231.01 
				76.455,230.07 72.895,229.07 68.794,228.49 64.004,229.07 60.584,230.07 58.685,231 56.475,232.07 			"/>
			<polyline fill="none" stroke="#FFFFFF" stroke-width="3" stroke-miterlimit="10" points="81.114,445.581 78.645,446.64 
				76.455,447.581 72.895,448.581 68.794,449.16 64.004,448.581 60.584,447.581 58.685,446.65 56.475,445.581 			"/>
			<polyline fill="none" stroke="#FFFFFF" stroke-width="3" stroke-miterlimit="10" points="36.774,258.84 36.774,286.91 
				36.774,390.74 36.774,420.47 			"/>
			<polyline fill="none" stroke="#FFFFFF" stroke-width="3" stroke-miterlimit="10" points="36.774,286.91 34.794,286.09 
				33.044,285.37 30.205,284.601 26.915,284.15 23.084,284.601 20.344,285.37 18.824,286.081 17.064,286.91 			"/>
			<polyline fill="none" stroke="#FFFFFF" stroke-width="3" stroke-miterlimit="10" points="17.064,390.74 19.044,391.561 
				20.785,392.28 23.634,393.05 26.915,393.5 30.745,393.05 33.484,392.28 35.004,391.57 36.774,390.74 			"/>
			<line fill="none" stroke="#FFFFFF" stroke-width="3" stroke-miterlimit="10" x1="17.064" y1="286.91" x2="17.064" y2="390.74"/>
			<polyline fill="none" stroke="#FFFFFF" stroke-width="3" stroke-miterlimit="10" points="56.475,232.07 56.475,258.84 
				56.475,420.47 56.475,445.581 			"/>
			<polyline fill="none" stroke="#FFFFFF" stroke-width="3" stroke-miterlimit="10" points="81.104,335.44 81.114,335.44 
				485.814,334.44 			"/>
			<line fill="none" stroke="#FFFFFF" stroke-width="3" stroke-miterlimit="10" x1="81.114" y1="346.67" x2="485.814" y2="346.67"/>
		</g>
	</g>
</g>
</svg>
